<?xml version="1.0" standalone="no"?>
<!DOCTYPE svg PUBLIC "-//W3C//DTD SVG 20010904//EN"
 "http://www.w3.org/TR/2001/REC-SVG-20010904/DTD/svg10.dtd">
<svg version="1.0" xmlns="http://www.w3.org/2000/svg"
 width="992.000000pt" height="1280.000000pt" viewBox="0 0 992.000000 1280.000000"
 preserveAspectRatio="xMidYMid meet">
<g transform="translate(0.000000,1280.000000) scale(0.100000,-0.100000)"
fill="#000000" stroke="none">
<path d="M4650 12784 c-69 -7 -222 -18 -340 -23 -478 -22 -816 -106 -1215
-301 -304 -149 -519 -304 -775 -560 -178 -177 -274 -293 -393 -475 -304 -466
-439 -902 -492 -1595 -17 -215 -21 -1540 -6 -1725 6 -60 13 -145 17 -187 l7
-77 -34 -5 c-299 -44 -376 -64 -534 -140 -298 -144 -494 -360 -644 -712 -97
-224 -170 -558 -201 -912 -37 -418 -40 -579 -40 -2379 0 -1084 4 -1800 10
-1845 5 -40 14 -111 20 -158 38 -300 135 -566 285 -781 77 -110 267 -298 383
-379 224 -157 520 -283 852 -364 544 -131 1235 -171 2285 -130 871 33 1352 30
2345 -17 608 -28 998 -20 1520 32 1066 105 1724 441 2025 1034 55 108 115 280
140 405 50 240 49 194 53 2110 4 1817 0 2093 -34 2505 -51 633 -193 1040 -460
1325 -204 216 -437 330 -799 390 -66 11 -130 23 -142 25 l-23 5 0 934 c0 546
-4 998 -10 1088 -101 1476 -984 2557 -2310 2828 -199 41 -360 57 -670 70 -146
6 -301 15 -345 21 -106 12 -321 9 -475 -7z m1585 -169 c380 -101 814 -322
1143 -582 126 -99 359 -333 452 -453 110 -143 260 -384 247 -397 -3 -2 -13 8
-23 24 -157 257 -290 427 -471 604 -346 340 -737 571 -1303 770 -179 63 -193
73 -45 34z m-710 -1369 c329 -53 563 -162 750 -351 256 -258 406 -646 467
-1205 17 -153 19 -1763 2 -1780 -11 -11 -305 -26 -1074 -55 -559 -21 -2472
-22 -2489 -1 -8 10 -11 59 -9 158 1 78 -1 370 -6 648 -9 518 -3 719 29 1015
80 724 324 1189 745 1418 168 92 351 142 620 171 19 2 222 3 450 1 321 -2 438
-7 515 -19z"/>
</g>
</svg>
